<?xml version="1.0" encoding="UTF-8" standalone="no"?>
<svg version="1.1" xmlns="http://www.w3.org/2000/svg" xmlns:xlink="http://www.w3.org/1999/xlink" x="0px" y="0px"
	 viewBox="0 0 260 260" style="enable-background:new 0 0 260 260;" xml:space="preserve">
<style type="text/css">
	.st0{display:none;}
	.st1{display:inline;fill:none;stroke:#E9E9E9;stroke-miterlimit:10;}
	.st2{display:inline;fill:none;stroke:#D3D3D3;stroke-miterlimit:10;}
	.st3{fill:none;stroke:#D3D3D3;stroke-miterlimit:10;}
	.st4{fill:none;}
	.st5{fill:#BDBDBD;}
	.st6{fill-rule:evenodd;clip-rule:evenodd;fill:#2A86CA;}
	.st7{fill:#2A86CA;}
	.st8{fill:#797979;}
	.st9{fill:none;stroke:#868686;stroke-width:2;stroke-miterlimit:10;}
</style>
<symbol  id="grid-26" viewBox="-130 -130 260 260">
	<g id="grid_3_" class="st0">
		<line class="st1" x1="-130" y1="119.5" x2="130" y2="119.5"/>
		<line class="st1" x1="-130" y1="109.5" x2="130" y2="109.5"/>
		<line class="st1" x1="-130" y1="99.5" x2="130" y2="99.5"/>
		<line class="st1" x1="-130" y1="89.5" x2="130" y2="89.5"/>
		<line class="st1" x1="-130" y1="79.5" x2="130" y2="79.5"/>
		<line class="st1" x1="-130" y1="69.5" x2="130" y2="69.5"/>
		<line class="st1" x1="-130" y1="59.5" x2="130" y2="59.5"/>
		<line class="st1" x1="-130" y1="49.5" x2="130" y2="49.5"/>
		<line class="st1" x1="-130" y1="39.5" x2="130" y2="39.5"/>
		<line class="st1" x1="-130" y1="29.5" x2="130" y2="29.5"/>
		<line class="st1" x1="-130" y1="19.5" x2="130" y2="19.5"/>
		<line class="st1" x1="-130" y1="9.5" x2="130" y2="9.5"/>
		<line class="st1" x1="-130" y1="-10.5" x2="130" y2="-10.5"/>
		<line class="st1" x1="-130" y1="-20.5" x2="130" y2="-20.5"/>
		<line class="st1" x1="-130" y1="-30.5" x2="130" y2="-30.5"/>
		<line class="st1" x1="-130" y1="-40.5" x2="130" y2="-40.5"/>
		<line class="st1" x1="-130" y1="-50.5" x2="130" y2="-50.5"/>
		<line class="st1" x1="-130" y1="-60.5" x2="130" y2="-60.5"/>
		<line class="st1" x1="-130" y1="-70.5" x2="130" y2="-70.5"/>
		<line class="st1" x1="-130" y1="-80.5" x2="130" y2="-80.5"/>
		<line class="st1" x1="-130" y1="-90.5" x2="130" y2="-90.5"/>
		<line class="st1" x1="-130" y1="-100.5" x2="130" y2="-100.5"/>
		<line class="st1" x1="-130" y1="-110.5" x2="130" y2="-110.5"/>
		<line class="st1" x1="-130" y1="-120.5" x2="130" y2="-120.5"/>
		<line class="st1" x1="-130" y1="-0.5" x2="130" y2="-0.5"/>
		<line class="st1" x1="-99.5" y1="130" x2="-99.5" y2="-130"/>
		<line class="st1" x1="-70.5" y1="130" x2="-70.5" y2="-130"/>
		<line class="st1" x1="-60.5" y1="130" x2="-60.5" y2="-130"/>
		<line class="st1" x1="-50.5" y1="130" x2="-50.5" y2="-130"/>
		<line class="st1" x1="-40.5" y1="130" x2="-40.5" y2="-130"/>
		<line class="st1" x1="-30.5" y1="130" x2="-30.5" y2="-130"/>
		<line class="st1" x1="-20.5" y1="130" x2="-20.5" y2="-130"/>
		<line class="st1" x1="-10.5" y1="130" x2="-10.5" y2="-130"/>
		<line class="st1" x1="9.5" y1="130" x2="9.5" y2="-130"/>
		<line class="st1" x1="19.5" y1="130" x2="19.5" y2="-130"/>
		<line class="st1" x1="29.5" y1="130" x2="29.5" y2="-130"/>
		<line class="st1" x1="39.5" y1="130" x2="39.5" y2="-130"/>
		<line class="st1" x1="49.5" y1="130" x2="49.5" y2="-130"/>
		<line class="st1" x1="59.5" y1="130" x2="59.5" y2="-130"/>
		<line class="st1" x1="69.5" y1="130" x2="69.5" y2="-130"/>
		<line class="st1" x1="79.5" y1="130" x2="79.5" y2="-130"/>
		<line class="st1" x1="89.5" y1="130" x2="89.5" y2="-130"/>
		<line class="st1" x1="99.5" y1="130" x2="99.5" y2="-130"/>
		<line class="st1" x1="109.5" y1="130" x2="109.5" y2="-130"/>
		<line class="st1" x1="119.5" y1="130" x2="119.5" y2="-130"/>
		<line class="st1" x1="-110.5" y1="130" x2="-110.5" y2="-130"/>
		<line class="st1" x1="-80.5" y1="130" x2="-80.5" y2="-130"/>
		<line class="st1" x1="-120.5" y1="130" x2="-120.5" y2="-130"/>
		<line class="st1" x1="-90.5" y1="130" x2="-90.5" y2="-130"/>
		<line class="st2" x1="-0.5" y1="130" x2="-0.5" y2="-130"/>
		<line class="st2" x1="-130" y1="-0.5" x2="130" y2="-0.5"/>
		<line class="st2" x1="-0.5" y1="130" x2="-0.5" y2="-130"/>
	</g>
	<line id="diagonal_6_" class="st3" x1="-129.4" y1="129.4" x2="129.4" y2="-129.4"/>
	<line id="diagonal_5_" class="st3" x1="-129.3" y1="-129.4" x2="129.3" y2="129.3"/>
	<g id="outer-square_3_">
		<polygon class="st4" points="-130,130 130,130 130,-130 -130,-130 		"/>
	</g>
	<g id="circles_3_">
		<g>
			<path class="st5" d="M0,49c27,0,49-22,49-49S27-49,0-49S-49-27-49,0S-27,49,0,49 M0,50c-27.6,0-50-22.4-50-50s22.4-50,50-50
				S50-27.6,50,0S27.6,50,0,50L0,50z"/>
		</g>
		<g>
			<path class="st5" d="M0.5,79c20.9,0,40.5-8.2,55.4-23.1C70.8,41,79,21.4,79,0.5C79-43.3,43.8-79,0.5-79
				c-21.3,0-41.3,8.2-56.3,23.2c-15,15-23.2,35-23.2,56.3C-79,43.8-43.3,79,0.5,79 M0.5,80C-44.2,80-80,44.2-80,0.5
				C-80-44.2-44.2-80,0.5-80C44.2-80,80-44.2,80,0.5C80,44.2,44.2,80,0.5,80L0.5,80z"/>
		</g>
		<g>
			<path class="st5" d="M0,119c31.8,0,61.7-12.4,84.1-34.9S119,31.8,119,0s-12.4-61.7-34.9-84.1S31.8-119,0-119
				s-61.7,12.4-84.1,34.9S-119-31.8-119,0s12.4,61.7,34.9,84.1S-31.8,119,0,119 M0,120c-66.3,0-120-53.7-120-120S-66.3-120,0-120
				S120-66.3,120,0S66.3,120,0,120L0,120z"/>
		</g>
	</g>
	<g id="squares_3_">
		<g>
			<path class="st5" d="M100,109c5,0,9-4,9-9v-200c0-5-4-9-9-9h-200c-5,0-9,4-9,9v200c0,5,4,9,9,9H100 M100,110h-200
				c-5.5,0-10-4.5-10-10v-200c0-5.5,4.5-10,10-10h200c5.5,0,10,4.5,10,10v200C110,105.5,105.5,110,100,110L100,110z"/>
		</g>
		<g>
			<path class="st5" d="M80,119c5,0,9-4,9-9v-220c0-5-4-9-9-9H-80c-5,0-9,4-9,9v220c0,5,4,9,9,9H80 M80,120H-80c-5.5,0-10-4.5-10-10
				v-220c0-5.5,4.5-10,10-10H80c5.5,0,10,4.5,10,10v220C90,115.5,85.5,120,80,120L80,120z"/>
		</g>
		<g>
			<path class="st5" d="M110,89c5,0,9-4,9-9V-80c0-5-4-9-9-9h-220c-5,0-9,4-9,9V80c0,5,4,9,9,9H110 M110,90h-220
				c-5.5,0-10-4.5-10-10V-80c0-5.5,4.5-10,10-10h220c5.5,0,10,4.5,10,10V80C120,85.5,115.5,90,110,90L110,90z"/>
		</g>
	</g>
</symbol>
<g id="grid" class="st0">
	
		<use xlink:href="#grid-26"  width="260" height="260" x="-130" y="-130" transform="matrix(1 0 0 -1 129 130)" style="display:inline;overflow:visible;"/>
</g>
<g id="icons">
	<g>
		<path class="st7" d="M239,40H19c-5.5,0-10,4.4-10,9.9V80h200l-20,20H9v110.1c0,5.5,4.5,9.9,10,9.9h220c5.5,0,10-4.4,10-9.9V49.9
			C249,44.4,244.5,40,239,40z M189,200v-20h-60l20-20h40v-20l40,30L189,200z"/>
	</g>
</g>
<g id="text">
</g>
</svg>